<?xml version="1.0" encoding="utf-8"?>
<!-- Generator: Adobe Illustrator 27.0.0, SVG Export Plug-In . SVG Version: 6.00 Build 0)  -->
<svg version="1.1" id="Layer_1" xmlns="http://www.w3.org/2000/svg" xmlns:xlink="http://www.w3.org/1999/xlink" x="0px" y="0px"
	 viewBox="0 0 93.5 94.2" style="enable-background:new 0 0 93.5 94.2;" xml:space="preserve">
<style type="text/css">
	.st0{fill:#F88325;}
	.st1{fill:#602883;}
	.st2{fill:#00307F;}
	.st3{fill:#0000FF;}
	.st4{fill:#E82218;}
	.st5{fill:#86B95C;}
	.st6{fill:#E1007F;}
	.st7{fill:#FFEE00;}
	.st8{fill:#2ABEF3;}
	.st9{fill:#205529;}
	.st10{fill:#FF1100;}
</style>
<g>
	<path class="st0" d="M69.3,47.1c0-5.3,0-10.6,0-15.8c0-1.3-0.9-2.2-2.2-2.2c-1.3,0-2.3,0.9-2.3,2.2c0,10.6,0,21.2,0,31.8
		c0,0.8,0.4,1.5,1.1,1.9c1.5,0.9,3.4-0.3,3.4-2c0-2.6,0-5.3,0-7.9C69.3,52.4,69.3,49.7,69.3,47.1z"/>
	<path class="st1" d="M81.8,33.9c-1.6-0.9-3.4,0.2-3.4,2c0,7.5,0,15,0,22.6c0,1.3,0.9,2.2,2.2,2.2c1.3,0,2.3-0.9,2.3-2.2
		c0-3.8,0-7.5,0-11.3c0,0,0,0,0,0c0-3.8,0-7.6,0-11.4C82.9,34.9,82.5,34.3,81.8,33.9z"/>
	<path class="st2" d="M73.9,38.1c-1.3,0-2.2,0.9-2.3,2.1c0,4.6,0,9.1,0,13.7c0,0.8,0.3,1.4,1,1.9c0.7,0.5,1.5,0.5,2.3,0.1
		c0.8-0.4,1.2-1,1.2-1.9c0-2.3,0-4.6,0-6.8c0-2.3,0-4.6,0-6.8C76.1,39,75.1,38.1,73.9,38.1z"/>
	<path class="st3" d="M87.4,44.9c-1.2,0-2.2,1-2.2,2.2c0,1.3,1,2.3,2.3,2.3c1.3,0,2.2-0.9,2.2-2.2C89.7,45.9,88.7,44.9,87.4,44.9z"
		/>
	<path class="st4" d="M54.7,34c-1.6-0.9-3.4,0.2-3.4,2c0,3.3,0,6.6,0,9.9c0,1.2,0,2.3,0,3.5c0,0,0,0,0,0c0,3,0,6.1,0,9.1
		c0,1.3,0.9,2.2,2.2,2.2c1.3,0,2.3-0.9,2.3-2.2c0-3.8,0-7.5,0-11.3c0,0,0,0,0,0c0-0.4,0-0.8,0-1.2c0-0.1,0-0.1,0-0.2
		c0-3.3,0-6.6,0-10C55.8,35.1,55.4,34.4,54.7,34z"/>
	<path class="st5" d="M62.5,47.2c0,0,0-0.1,0-0.1c0-3,0-6,0-9c0-1.3-0.9-2.2-2.2-2.2C59,35.8,58,36.8,58,38c0,6,0,12.1,0,18.1
		c0,0.8,0.3,1.5,1,1.9c0.7,0.5,1.5,0.5,2.3,0.1c0.8-0.4,1.2-1.1,1.2-1.9c0-2.9,0-5.9,0-8.8C62.5,47.4,62.5,47.3,62.5,47.2
		C62.5,47.3,62.5,47.3,62.5,47.2z"/>
	<path class="st6" d="M28.7,46.9c0-5.3,0-10.6,0-15.8c0-1.3-0.9-2.2-2.2-2.2c-1.3,0-2.3,0.9-2.3,2.2c0,4.4,0,8.9,0,13.3
		c0,0.2-0.1,0.4-0.1,0.6c0,1.5,0,3,0,4.5c0,0.2,0,0.4,0.1,0.6c0,4.3,0,8.5,0,12.8c0,0.8,0.4,1.5,1.1,1.9c1.5,0.9,3.4-0.3,3.4-2
		C28.7,57.5,28.7,52.2,28.7,46.9z"/>
	<path class="st7" d="M35.5,46.9c0-2.3,0-4.6,0-6.8c0-0.2,0-0.4-0.1-0.6c0-0.5,0-0.9,0-1.4c0-1.3-0.9-2.2-2.2-2.2
		c-1.3,0-2.2,0.9-2.2,2.2c0,6,0,12.1,0,18.1c0,0.8,0.3,1.5,1,1.9c0.7,0.5,1.5,0.5,2.3,0.1c0.8-0.4,1.2-1.1,1.2-1.9
		c0-0.6,0-1.3,0-1.9c0-0.2,0.1-0.4,0.1-0.6C35.5,51.5,35.5,49.2,35.5,46.9z"/>
	<path class="st4" d="M21.9,37.9c0-1.3-0.9-2.2-2.2-2.2c-1.3,0-2.2,0.9-2.2,2.2c0,2.9,0,5.8,0,8.8c0,0.2-0.1,0.3-0.1,0.5
		c0,0.2,0,0.4,0.1,0.6c0,2.7,0,5.5,0,8.2c0,0.8,0.3,1.5,1,1.9c0.7,0.5,1.5,0.5,2.3,0.1c0.8-0.4,1.2-1.1,1.2-1.9c0-3,0-6.1,0-9.1
		C21.9,43.9,21.9,40.9,21.9,37.9z"/>
	<path class="st8" d="M42.2,35c0-1.2,0-2.4,0-3.6c0-1.3-0.9-2.2-2.2-2.2c-1.3,0-2.3,0.9-2.3,2.2c0,10.6,0,21.2,0,31.8
		c0,0.8,0.4,1.5,1.1,1.9c1.5,0.9,3.4-0.3,3.4-2c0-1.4,0-2.8,0-4.2c0-0.2,0.1-0.4,0.1-0.6c0-3.8,0-7.5,0-11.3c0,0,0,0,0,0
		c0-3.8,0-7.6,0-11.4C42.3,35.4,42.2,35.2,42.2,35z"/>
	<path class="st0" d="M14.8,43.6c-0.5-0.9-1.6-1.3-2.7-1c-0.9,0.3-1.5,1.1-1.5,2.1c0,1.5,0,3,0,4.5c0,1.3,0.9,2.2,2.2,2.3
		c1.3,0,2.3-1,2.3-2.2c0-0.8,0-1.5,0-2.3c0-0.8,0-1.6,0-2.4C15.1,44.2,15,43.9,14.8,43.6z"/>
	<path class="st9" d="M49,46.5c0-2,0-4,0-6.1c0-1.3-1-2.2-2.2-2.2c-1.3,0-2.2,0.9-2.3,2.1c0,2.2,0,4.4,0,6.6c0,0,0,0.1,0,0.1
		c0,0.1,0,0.1,0,0.2c0,2.3,0,4.6,0,6.9c0,0.8,0.3,1.4,1,1.9c0.7,0.5,1.5,0.5,2.3,0.1c0.8-0.4,1.2-1,1.2-1.9c0-2.2,0-4.3,0-6.5
		c0-0.2,0.1-0.4,0.1-0.6C49,46.8,49,46.6,49,46.5z"/>
	<path class="st10" d="M6.1,44.7c-1.3,0-2.3,0.9-2.3,2.1c0,1.3,1,2.4,2.2,2.4c1.3,0,2.3-1,2.3-2.3C8.3,45.7,7.4,44.7,6.1,44.7z"/>
</g>
</svg>
